<?xml version="1.0" encoding="UTF-8" standalone="no"?>
<!-- Created with Inkscape (http://www.inkscape.org/) -->

<svg
   xmlns:dc="http://purl.org/dc/elements/1.1/"
   xmlns:cc="http://creativecommons.org/ns#"
   xmlns:rdf="http://www.w3.org/1999/02/22-rdf-syntax-ns#"
   xmlns:svg="http://www.w3.org/2000/svg"
   xmlns="http://www.w3.org/2000/svg"
   xmlns:sodipodi="http://sodipodi.sourceforge.net/DTD/sodipodi-0.dtd"
   xmlns:inkscape="http://www.inkscape.org/namespaces/inkscape"
   width="144.00021mm"
   height="68.402161mm"
   viewBox="0 0 144.00021 68.402161"
   version="1.1"
   id="svg8"
   sodipodi:docname="zms.svg"
   inkscape:version="0.92.3 (2405546, 2018-03-11)">
  <defs
     id="defs2" />
  <sodipodi:namedview
     id="base"
     pagecolor="#ffffff"
     bordercolor="#666666"
     borderopacity="1.0"
     inkscape:pageopacity="0.0"
     inkscape:pageshadow="2"
     inkscape:zoom="0.7"
     inkscape:cx="87.355612"
     inkscape:cy="97.474165"
     inkscape:document-units="mm"
     inkscape:current-layer="layer1"
     showgrid="false"
     inkscape:window-width="1366"
     inkscape:window-height="705"
     inkscape:window-x="-8"
     inkscape:window-y="-8"
     inkscape:window-maximized="1"
     fit-margin-top="0"
     fit-margin-left="0"
     fit-margin-right="0"
     fit-margin-bottom="0" />
  <metadata
     id="metadata5">
    <rdf:RDF>
      <cc:Work
         rdf:about="">
        <dc:format>image/svg+xml</dc:format>
        <dc:type
           rdf:resource="http://purl.org/dc/dcmitype/StillImage" />
        <dc:title></dc:title>
      </cc:Work>
    </rdf:RDF>
  </metadata>
  <g
     inkscape:label="Layer 1"
     inkscape:groupmode="layer"
     id="layer1"
     transform="translate(-9.0843632,-93.847336)">
    <text
       xml:space="preserve"
       style="font-style:normal;font-variant:normal;font-weight:normal;font-stretch:normal;font-size:7.05555534px;line-height:1.25;font-family:Arial;-inkscape-font-specification:Arial;letter-spacing:0px;word-spacing:0px;fill:#000000;fill-opacity:1;stroke:none;stroke-width:0.26458332"
       x="51.59375"
       y="100.83035"
       id="text823"><tspan
         sodipodi:role="line"
         id="tspan821"
         x="51.59375"
         y="107.18568"
         style="stroke-width:0.26458332" /></text>
    <path
       style="fill:#000000;fill-opacity:1;fill-rule:evenodd;stroke:#000000;stroke-width:0.1;stroke-miterlimit:4;stroke-dasharray:none;stroke-opacity:0.98342542"
       id="path910"
       d="m 50.757833,109.09136 c 0.291068,0.0148 0.581832,0.0379 0.873204,0.0443 1.575271,0.0347 2.951202,-0.003 4.564134,-0.0532 4.648859,-0.14526 9.289603,-0.44562 13.932924,-0.70706 8.227054,-0.44665 16.457096,-0.84147 24.691101,-1.13515 2.903588,-0.13199 5.804534,-0.17776 8.705804,10e-4 0.5993,0.0752 1.21589,0.0297 1.80983,0.15009 0.0662,0.0134 0.16382,-0.008 0.19589,0.0517 0.0615,0.11397 0.027,0.25759 0.0404,0.38638 -0.2543,0.20535 -0.49444,0.42958 -0.7629,0.61603 -1.69179,1.17496 -5.298001,3.37567 -6.614491,4.18805 -2.071677,1.27838 -4.148881,2.54778 -6.223703,3.82106 -11.310763,6.94117 -5.269913,3.20084 -16.794647,10.39613 -10.830872,6.74987 -21.565446,13.65678 -32.515801,20.21277 -2.442012,1.33164 -4.793279,2.86312 -7.300794,4.08066 -0.248486,0.12065 -0.504129,0.2261 -0.753343,0.34525 0.186812,-0.0622 -0.430016,0.17556 -0.334848,0.10717 0.788633,-0.56675 1.573715,-1.14147 2.400096,-1.65161 0.123838,-0.0764 0.283586,-0.0659 0.426514,-0.0933 0.273348,-0.0524 0.548343,-0.0959 0.822097,-0.14617 0.469236,-0.0861 0.9379,-0.17534 1.406853,-0.26302 0.793007,-0.13245 1.585883,-0.26568 2.37902,-0.39736 1.160031,-0.19259 2.317985,-0.39833 3.480477,-0.57546 4.154651,-0.63308 5.896739,-0.81695 10.231747,-1.36415 9.208018,-1.16233 3.221331,-0.42134 12.580479,-1.56487 9.352627,-1.16602 18.734754,-2.07319 28.1417,-2.65281 3.587292,-0.19703 7.179364,-0.27686 10.769564,-0.40282 1.40752,-0.0265 2.8099,-0.15686 4.2125,-0.26734 0.55181,-0.0397 1.10473,-0.0571 1.65782,-0.0631 0.0671,-2.7e-4 0.13424,-8e-4 0.20135,-0.001 0,0 -2.25319,1.63857 -2.25319,1.63857 v 0 c -0.0662,2.3e-4 -0.13238,5.3e-4 -0.19857,7.9e-4 -0.53658,0.004 -1.07315,0.0156 -1.60895,0.0462 -1.3555,0.0675 -2.71092,0.1537 -4.06879,0.14885 -3.46573,0.0473 -6.931996,0.0442 -10.396969,0.13694 -9.183031,0.32248 -18.347107,1.04196 -27.467713,2.16975 -9.917525,1.23992 -19.86639,2.44025 -29.6272,4.63995 -0.0641,0.0148 -2.055907,0.47929 -2.430012,0.55206 -0.178044,0.0346 -0.664708,0.21058 -0.53812,0.0807 1.223369,-1.25538 1.389081,-1.39204 2.378061,-1.79509 1.37885,-0.58432 2.674014,-1.33602 4.019638,-1.98875 11.499746,-6.66858 22.745906,-13.76099 34.025426,-20.79261 1.77559,-1.11606 14.03232,-8.81885 16.115554,-10.13293 2.940368,-1.85474 6.593097,-4.14282 9.567155,-6.13195 3.6653,-2.45146 0.68728,-0.57486 2.54105,-1.73266 0.0645,0.01 0.13271,0.0542 0.19336,0.0301 0.0513,-0.0203 -0.10576,-0.0323 -0.15984,-0.0434 -0.55816,-0.11486 -1.13594,-0.11389 -1.69794,-0.20141 -2.764915,-0.26671 -5.538487,-0.3013 -8.315344,-0.25354 -8.069294,0.0587 -16.138052,0.27337 -24.192907,0.77914 -1.738861,0.11437 -3.478189,0.22182 -5.216581,0.34312 -4.094244,0.28567 -8.18425,0.63614 -12.278683,0.91796 -0.97169,0.0669 -1.88193,0.10383 -2.843368,0.14666 0,0 2.230906,-1.62085 2.230906,-1.62085 z"
       inkscape:connector-curvature="0" />
    <path
       style="fill:#000000;fill-opacity:1;fill-rule:evenodd;stroke:#000000;stroke-width:0.1;stroke-miterlimit:4;stroke-dasharray:none;stroke-opacity:0.98342542"
       id="path940"
       d="m 125.79889,101.45466 c 1.59143,-0.0649 3.15596,-0.32317 4.71036,-0.65496 0.56264,-0.008 1.23331,-0.43198 1.80722,-0.28046 0.83499,0.22043 0.97409,1.21177 1.15768,1.88991 0.40308,2.88375 0.38564,5.80945 0.45518,8.71595 0.0129,1.88811 7.9e-4,3.76132 0.34519,5.62205 0.48104,2.25824 1.35943,3.47218 3.03474,5.01386 2.153,1.76316 4.77757,2.47763 7.46614,2.92151 1.50597,0.15082 3.16025,0.35789 4.62998,-0.1573 0.22188,-0.0778 0.42555,-0.20006 0.63832,-0.3001 1.69704,-0.96003 4.68694,-2.53068 -3.13104,1.79118 -0.16169,0.0894 0.30285,-0.21202 0.44851,-0.32567 0.28942,-0.22584 0.29646,-0.24749 0.51606,-0.4797 0.0225,-0.0202 0.045,-0.0806 0.0675,-0.0605 0.40923,0.36527 -0.76334,0.84782 -0.90795,0.9181 0.221,-0.12 -1.13579,0.64868 -0.85248,0.48541 11.4013,-6.57037 -0.93997,0.55605 -0.9477,0.56069 -1.42309,0.85499 2.87588,-1.65962 4.32099,-2.47684 0.12986,-0.0734 -0.24967,0.16339 -0.3745,0.24509 -0.65898,0.40658 -1.30379,0.81084 -1.83906,1.37467 -0.62169,0.582 -1.01009,1.2903 -1.32536,2.06917 -0.35168,0.93983 -0.67796,1.88688 -0.87807,2.87118 -0.10184,0.79104 -0.17522,1.57995 -0.31581,2.36589 -0.25875,0.91552 -0.43946,1.8394 -0.53458,2.78578 -0.18023,1.41435 -0.31932,2.83228 -0.51086,4.24511 -0.16336,1.69859 -0.66299,3.33717 -1.0518,4.99265 -0.49653,2.14641 -1.1775,4.24502 -2.0772,6.25563 -0.70032,1.56726 -1.82575,2.86417 -3.10061,3.98953 -2.91857,2.2447 -6.20208,4.0938 -9.72121,5.19127 -1.89032,0.60129 -3.85719,0.88922 -5.8265,1.07003 -0.78606,0.0675 -1.57463,0.0901 -2.36311,0.10311 0,0 4.48661,-3.27001 4.48661,-3.27001 v 0 c 0.75958,-0.0103 1.51937,-0.0287 2.27672,-0.0925 1.93513,-0.18061 3.85944,-0.49755 5.70342,-1.132 0.97503,-0.34153 0.97982,-0.32122 1.91883,-0.73673 0.2979,-0.13182 1.16102,-0.58733 0.88539,-0.41372 -7.08869,4.46486 -3.97089,2.38555 -2.43599,1.33485 1.29665,-1.05919 2.48807,-2.26994 3.23087,-3.7927 0.97082,-1.95475 1.66833,-4.02662 2.14475,-6.15685 0.35778,-1.63461 0.79924,-3.25604 1.0109,-4.91741 0.18148,-1.39854 0.32396,-2.80014 0.48815,-4.2008 0.0539,-0.9522 0.14434,-1.90524 0.465,-2.81138 0.1384,-0.79203 0.27629,-1.57393 0.32585,-2.37827 0.1803,-1.0231 0.51635,-1.99307 0.84648,-2.97533 0.18009,-0.45451 0.30159,-0.9828 0.54609,-1.40755 0.17546,-0.30483 0.48507,-0.53676 0.65459,-0.84849 0.99354,-0.96948 -0.53934,0.54685 0.49138,-0.54754 0.2848,-0.30239 0.61417,-0.48724 0.96045,-0.70281 0.12481,-0.0777 0.24226,-0.1666 0.36339,-0.24991 1.82148,-1.12958 3.72137,-2.12967 5.53902,-3.26541 1.39153,-0.86948 -5.67475,3.29771 -4.25935,2.46764 1.73339,-1.01656 3.47407,-2.02064 5.21334,-3.02711 0.37919,-0.21943 0.50996,-0.2824 0.88771,-0.47888 0.43963,-0.22335 0.99049,-0.61865 1.44777,-0.1904 0.26304,0.24635 0.20686,0.3096 0.17894,0.58498 -0.23278,0.40252 -0.54513,0.76346 -0.95034,1.00991 -2.02087,1.22911 -4.11916,2.6448 -6.33763,3.62078 -1.73938,0.55552 -3.5517,0.45448 -5.33535,0.13397 -2.75054,-0.54065 -5.43099,-1.35824 -7.63932,-3.16756 -1.77504,-1.60816 -2.7441,-2.89704 -3.28547,-5.26685 -0.14602,-0.70019 -0.23133,-1.00321 -0.29337,-1.71237 -0.11789,-1.34753 0.0445,-2.70369 0.007,-4.05275 0.0122,-2.8474 0.032,-5.72508 -0.48436,-8.53502 -0.0875,-0.28136 -0.18669,-0.90199 -0.50395,-1.12844 -0.41135,-0.29361 -1.59115,0.21248 -2.04417,0.21694 -1.60891,0.30364 -3.23301,0.52467 -4.86737,0.6346 0,0 4.52433,-3.28711 4.52433,-3.28711 z"
       inkscape:connector-curvature="0" />
    <path
       style="fill:#000000;fill-opacity:1;fill-rule:evenodd;stroke:#000000;stroke-width:0.1;stroke-miterlimit:4;stroke-dasharray:none;stroke-opacity:0.98342542"
       id="path942"
       d="m 28.036954,98.437426 c -0.881722,-0.583694 -1.847265,-0.90088 -2.878739,-1.090673 -1.018466,-0.159464 -2.050366,-0.178858 -3.078914,-0.183616 -0.351394,-0.01095 -0.744986,0.02238 -1.075916,0.159462 -0.177776,0.07365 -0.329943,0.198565 -0.500464,0.287732 1.525073,-0.870792 3.050145,-1.741583 4.575218,-2.612374 -1.000838,0.797412 -1.130592,2.343438 -1.359263,3.514333 -0.371013,2.3801 -0.556879,4.78219 -0.856261,7.17111 -0.148796,1.39948 -0.298723,2.79516 -0.503438,4.18763 -0.08672,1.03505 -0.280602,2.0541 -0.432062,3.08022 -0.108603,0.82985 -0.436534,1.57828 -0.862665,2.28884 -0.494231,0.84636 -1.037171,1.66993 -1.652824,2.43318 -2.033097,2.04156 -4.753558,3.49415 -7.595481,3.95692 -0.851648,0.12507 -1.713057,0.11465 -2.5710425,0.13489 -0.035195,0.004 -0.1343594,0.034 -0.1055839,0.0133 5.1401254,-3.70508 3.0236024,-3.54517 6.3247894,-3.09959 0.892388,0.0953 1.758975,0.34621 2.615001,0.60572 1.351882,0.51761 1.410944,1.90824 1.544137,3.17038 0.07211,3.33488 -0.439524,6.64869 -0.94179,9.93589 -0.34195,1.83828 -0.701529,3.67219 -1.024183,5.51391 -0.20741,1.36286 -0.461376,2.71895 -0.640222,4.08608 -0.127507,1.01439 -0.154057,2.03688 -0.187745,3.05748 -0.02318,1.19844 -0.01365,2.39742 -0.0029,3.59598 -0.04937,0.8793 0.06243,1.72291 0.314501,2.56193 0.290419,0.89536 1.148807,1.37823 1.915242,1.83855 0.82898,0.4316 1.695256,0.77457 2.552328,1.14249 1.251406,0.38204 2.481781,0.82761 3.72947,1.22117 0.776899,0.28936 0.396566,0.15193 1.140616,0.41337 0,0 -4.583939,3.09254 -4.583939,3.09254 v 0 c -0.726374,-0.27208 -0.355869,-0.1352 -1.111655,-0.41026 -1.260365,-0.42115 -2.523884,-0.83194 -3.789895,-1.23521 -0.886665,-0.36104 -1.768193,-0.73916 -2.597116,-1.22199 -0.863428,-0.56391 -1.794531,-1.14076 -2.140867,-2.16761 -0.27159,-0.89173 -0.445722,-1.78088 -0.361406,-2.72066 0.007,-1.2016 0.0093,-2.40329 0.0028,-3.60488 -0.0078,-1.04444 0.03372,-2.08813 0.174929,-3.12438 0.18422,-1.37767 0.45091,-2.74129 0.64479,-4.11745 0.351488,-1.88103 0.776339,-3.7409 1.224783,-5.60255 0.568668,-3.20922 1.094466,-6.45825 0.870009,-9.7297 -0.151501,-1.1202 -0.108437,-2.16987 -1.33018,-2.55572 -0.833909,-0.24998 -1.686228,-0.44722 -2.553062,-0.53991 -0.185422,-0.0242 -0.733066,-0.0987 -0.923939,-0.11253 -0.1331944,-0.01 -0.2669447,-0.0118 -0.4004839,-0.0108 -0.1092086,8e-4 -0.4123592,0.0846 -0.3272366,0.0161 4.2128715,-3.38621 2.6411925,-3.74361 4.4930055,-3.304 0.825669,0.008 1.654499,-0.0356 2.468117,-0.1832 0.419308,-0.0913 0.613625,-0.12148 1.024976,-0.26192 0.177707,-0.0607 0.684531,-0.3036 0.524695,-0.20505 -7.517581,4.63547 -5.036245,3.07795 -3.496772,2.01703 0.652655,-0.71037 1.19851,-1.50956 1.69792,-2.33424 0.07143,-0.13396 0.142862,-0.26793 0.214293,-0.40189 0.07581,-0.10013 0.165245,-0.19127 0.227419,-0.30039 0.245642,-0.43111 0.355619,-0.93608 0.512084,-1.40177 0.147747,-1.03356 0.381949,-2.05033 0.459049,-3.09297 0.199746,-1.40878 0.438311,-2.81087 0.590707,-4.2267 0.359552,-2.38983 0.632826,-4.79049 0.868481,-7.19587 0.186424,-1.2908 0.310714,-2.698137 1.004775,-3.833917 2.504044,-1.458772 4.04725,-3.239595 6.720346,-3.151362 1.039358,0.0293 2.080583,0.0906 3.102846,0.29337 1.081719,0.244864 2.091369,0.645494 3.054807,1.198581 0,0 -4.706109,3.044942 -4.706109,3.044942 z"
       inkscape:connector-curvature="0" />
    <path
       style="fill:#000000;fill-opacity:1;fill-rule:evenodd;stroke:#000000;stroke-width:0.1;stroke-miterlimit:4;stroke-dasharray:none;stroke-opacity:0.98342542"
       id="path974"
       d="m 20.640012,117.70114 c 0.629957,0.004 1.252431,-0.16419 1.878639,-0.24709 0,0 -4.46101,3.33893 -4.46101,3.33893 v 0 c -0.650149,0.1 -1.298456,0.22607 -1.959814,0.20826 0,0 4.542185,-3.3001 4.542185,-3.3001 z"
       inkscape:connector-curvature="0" />
    <path
       style="fill:#000000;fill-opacity:1;fill-rule:evenodd;stroke:#000000;stroke-width:0.1;stroke-miterlimit:4;stroke-dasharray:none;stroke-opacity:0.98342542"
       id="path820"
       d="m 40.29289,147.59012 c 2.178923,-0.54659 4.282091,-1.34774 6.371992,-2.16638 2.869777,-1.07883 5.660748,-2.35254 8.3507,-3.82322 0.762733,-0.41701 1.57095,-0.76785 2.268085,-1.28714 0.640403,-0.47703 -1.39763,0.77286 -2.096447,1.15929 3.760528,-2.34027 7.365561,-4.91663 11.090621,-7.31088 3.389919,-2.20073 6.946736,-4.12488 10.417443,-6.18992 1.290166,-0.76764 -2.609395,1.48535 -3.914093,2.22803 1.048827,-0.6118 2.046788,-1.31027 2.963479,-2.10637 0.785421,-0.69742 1.590381,-1.37321 2.351942,-2.0968 0.993577,-0.91783 1.894708,-1.9265 2.861929,-2.8706 0.9955,-0.96601 2.155502,-1.72472 3.291451,-2.50965 2.510367,-1.72378 5.198539,-3.19396 7.967411,-4.45793 2.044954,-0.87942 6.203397,-3.38083 -2.21302,1.44584 0.122524,-0.0737 0.243332,-0.15042 0.36757,-0.22124 17.003247,-9.69251 -11.071778,6.43509 5.772568,-3.29405 1.501579,-0.8673 -3.001843,1.73695 -4.510106,2.59258 -0.08882,0.0504 0.167074,-0.11747 0.250611,-0.17621 0.589298,-0.38973 1.140761,-0.83213 1.708406,-1.25161 0.552752,-0.33758 1.020213,-0.75813 1.439302,-1.24865 0.394816,-0.3785 0.831353,-0.71706 1.264981,-1.0513 0.404283,-0.34624 0.769112,-0.73386 1.162785,-1.09126 0.385345,-0.38211 0.753211,-0.78335 1.15456,-1.14902 1.68673,-0.9607 3.37347,-1.9214 5.0602,-2.88211 0,0 -4.38483,3.48335 -4.38483,3.48335 v 0 c 1.51399,-0.88147 3.02798,-1.76294 4.54197,-2.64442 -0.50165,0.23153 -0.78078,0.68992 -1.2022,1.02798 -0.33094,0.41938 -0.75651,0.76694 -1.14935,1.12381 -0.35743,0.41164 -0.82712,0.734 -1.27932,1.03097 -0.481747,0.44056 -0.800242,1.06072 -1.421225,1.33881 -0.56366,0.42641 -1.126259,0.84154 -1.685856,1.2731 -1.726165,1.10672 -3.591023,1.99029 -5.295733,3.12979 -1.430168,0.95598 5.978459,-3.40597 4.467651,-2.58333 -1.664298,0.90621 -11.046627,6.3937 -0.699871,0.37561 0.123847,-0.072 -0.249798,0.14039 -0.374697,0.21058 -2.43531,1.41043 -4.746472,2.88942 -7.307876,4.00787 -0.220412,0.10508 -0.797812,0.38065 -1.00896,0.47999 -0.181306,0.0853 -0.716232,0.35774 -0.54479,0.25404 7.609795,-4.60309 4.672433,-2.78756 3.041801,-1.73997 -1.122172,0.79141 -2.301365,1.50486 -3.323249,2.43048 -0.980771,0.924 -1.862767,1.93731 -2.852999,2.85146 -0.713473,0.76569 -1.526069,1.4335 -2.315499,2.11577 -0.91477,0.85506 -1.919539,1.61652 -3.012268,2.22795 -11.381115,6.66331 -3.901461,2.27784 -1.644483,0.97601 0.348938,-0.20127 -0.692923,0.41101 -1.038373,0.6182 -1.354095,0.81216 -2.71144,1.61917 -4.051483,2.45444 -3.796241,2.38748 -7.449664,4.99349 -11.2444,7.38422 -5.626629,3.29495 -11.191142,6.75102 -17.344688,9.0014 -2.198243,0.86543 -4.41519,1.67308 -6.673766,2.36602 0,0 4.422124,-3.43553 4.422124,-3.43553 z"
       inkscape:connector-curvature="0" />
  </g>
</svg>
